<?xml version="1.0" encoding="UTF-8"?>
<svg width="20px" height="36px" viewBox="0 0 20 36" version="1.1" xmlns="http://www.w3.org/2000/svg" xmlns:xlink="http://www.w3.org/1999/xlink">
    <!-- Generator: Sketch 55 (78076) - https://sketchapp.com -->
    <title>flash</title>
    <desc>Created with Sketch.</desc>
    <g id="designs-web-app" stroke="none" stroke-width="1" fill="none" fill-rule="evenodd">
        <g id="hompage-details" transform="translate(-872.000000, -2549.000000)" fill="#000000" fill-rule="nonzero">
            <g id="flash" transform="translate(872.000000, 2549.000000)">
                <path d="M19.889589,12.1311341 C19.7726712,11.8956016 19.5973288,11.7778008 19.3635616,11.7778008 L12.4667808,11.7778008 L19.305137,0.883333333 C19.4220548,0.706666667 19.4220548,0.471134115 19.305137,0.294467448 C19.1882192,0.117800781 19.0128767,0 18.7791096,0 L9.42753425,0 C9.19376712,0 9.01842466,0.117800781 8.90150685,0.294467448 L0.134383562,17.9611341 C0.0174657534,18.1378008 0.0174657534,18.3733333 0.134383562,18.55 C0.25130137,18.7266667 0.485068493,18.8444674 0.660410959,18.8444674 L6.68047945,18.8444674 L0.134383562,34.5678008 C0.0174657534,34.8033333 0.134383562,35.0978008 0.368150685,35.2744674 C0.426575342,35.3333333 0.543493151,35.3333333 0.660410959,35.3333333 C0.835753425,35.3333333 1.01109589,35.2744674 1.1280137,35.1566667 L19.8312329,12.7788659 C19.9480822,12.6021992 20.0065068,12.3666667 19.889589,12.1311341 Z M2.7060274,31.3878008 L8.08321918,18.4322682 C8.14164384,18.2556016 8.14164384,18.0789349 8.02479452,17.9022682 C7.90787671,17.7844674 7.73253425,17.6667357 7.55719178,17.6667357 L1.59554795,17.6667357 L9.77821918,1.17780078 L17.7270548,1.17780078 L10.830274,12.0721992 C10.7133562,12.2488659 10.7133562,12.4843984 10.830274,12.6610651 C10.9471918,12.8377318 11.1225342,12.9555326 11.3563014,12.9555326 L18.1362329,12.9555326 L2.7060274,31.3878008 Z" id="Shape"></path>
            </g>
        </g>
    </g>
</svg>